<svg viewBox="0 0 40 46" fill="none" xmlns="http://www.w3.org/2000/svg">
  <defs>
    <clipPath id="shield-left"><rect x="0" y="0" width="20" height="46"/></clipPath>
    <clipPath id="shield-right"><rect x="20" y="0" width="20" height="46"/></clipPath>
  </defs>
  <path d="M20 2L4 9V23c0 9 7 16.5 16 19 9-2.5 16-10 16-19V9L20 2z" fill="#0A1628" clip-path="url(#shield-left)"/>
  <path d="M20 2L4 9V23c0 9 7 16.5 16 19 9-2.5 16-10 16-19V9L20 2z" fill="#1B3A6B" clip-path="url(#shield-right)"/>
  <path d="M20 2L4 9V23c0 9 7 16.5 16 19 9-2.5 16-10 16-19V9L20 2z" stroke="#00E87B" stroke-width="2.5" stroke-linejoin="round"/>
  <path d="M11 23l6 6 12-14" stroke="#00E87B" stroke-width="3.5" stroke-linecap="round" stroke-linejoin="round"/>
</svg>
